<svg width="36" height="36" viewBox="0 0 36 36" fill="none" xmlns="http://www.w3.org/2000/svg">
<path fill-rule="evenodd" clip-rule="evenodd" d="M18 32.4C21.8191 32.4 25.4818 30.8829 28.1823 28.1823C30.8829 25.4818 32.4 21.8191 32.4 18C32.4 14.1809 30.8829 10.5182 28.1823 7.81766C25.4818 5.11714 21.8191 3.6 18 3.6C14.1809 3.6 10.5182 5.11714 7.81767 7.81766C5.11714 10.5182 3.60001 14.1809 3.60001 18C3.60001 21.8191 5.11714 25.4818 7.81767 28.1823C10.5182 30.8829 14.1809 32.4 18 32.4ZM19.8 12.6C19.8 12.1226 19.6104 11.6648 19.2728 11.3272C18.9352 10.9896 18.4774 10.8 18 10.8C17.5226 10.8 17.0648 10.9896 16.7272 11.3272C16.3896 11.6648 16.2 12.1226 16.2 12.6V16.2H12.6C12.1226 16.2 11.6648 16.3896 11.3272 16.7272C10.9896 17.0648 10.8 17.5226 10.8 18C10.8 18.4774 10.9896 18.9352 11.3272 19.2728C11.6648 19.6104 12.1226 19.8 12.6 19.8H16.2V23.4C16.2 23.8774 16.3896 24.3352 16.7272 24.6728C17.0648 25.0104 17.5226 25.2 18 25.2C18.4774 25.2 18.9352 25.0104 19.2728 24.6728C19.6104 24.3352 19.8 23.8774 19.8 23.4V19.8H23.4C23.8774 19.8 24.3352 19.6104 24.6728 19.2728C25.0104 18.9352 25.2 18.4774 25.2 18C25.2 17.5226 25.0104 17.0648 24.6728 16.7272C24.3352 16.3896 23.8774 16.2 23.4 16.2H19.8V12.6Z" fill="white"/>
</svg>
