<svg width="36" height="36" viewBox="0 0 36 36" fill="none" xmlns="http://www.w3.org/2000/svg">
<path d="M12.6 5.4C12.1226 5.4 11.6648 5.58964 11.3272 5.92721C10.9896 6.26477 10.8 6.72261 10.8 7.2C10.8 7.67739 10.9896 8.13523 11.3272 8.47279C11.6648 8.81036 12.1226 9 12.6 9H23.4C23.8774 9 24.3352 8.81036 24.6728 8.47279C25.0104 8.13523 25.2 7.67739 25.2 7.2C25.2 6.72261 25.0104 6.26477 24.6728 5.92721C24.3352 5.58964 23.8774 5.4 23.4 5.4H12.6ZM7.20001 12.6C7.20001 12.1226 7.38965 11.6648 7.72721 11.3272C8.06478 10.9896 8.52262 10.8 9.00001 10.8H27C27.4774 10.8 27.9352 10.9896 28.2728 11.3272C28.6104 11.6648 28.8 12.1226 28.8 12.6C28.8 13.0774 28.6104 13.5352 28.2728 13.8728C27.9352 14.2104 27.4774 14.4 27 14.4H9.00001C8.52262 14.4 8.06478 14.2104 7.72721 13.8728C7.38965 13.5352 7.20001 13.0774 7.20001 12.6ZM3.60001 19.8C3.60001 18.8452 3.97929 17.9295 4.65442 17.2544C5.32955 16.5793 6.24523 16.2 7.20001 16.2H28.8C29.7548 16.2 30.6705 16.5793 31.3456 17.2544C32.0207 17.9295 32.4 18.8452 32.4 19.8V27C32.4 27.9548 32.0207 28.8705 31.3456 29.5456C30.6705 30.2207 29.7548 30.6 28.8 30.6H7.20001C6.24523 30.6 5.32955 30.2207 4.65442 29.5456C3.97929 28.8705 3.60001 27.9548 3.60001 27V19.8Z" fill="white"/>
</svg>
