<svg width="36" height="36" viewBox="0 0 36 36" fill="none" xmlns="http://www.w3.org/2000/svg">
<path d="M16.4 10.4C16.4 11.8322 15.8311 13.2057 14.8184 14.2184C13.8057 15.2311 12.4322 15.8 11 15.8C9.56783 15.8 8.19432 15.2311 7.18162 14.2184C6.16893 13.2057 5.6 11.8322 5.6 10.4C5.6 8.96783 6.16893 7.59432 7.18162 6.58162C8.19432 5.56893 9.56783 5 11 5C12.4322 5 13.8057 5.56893 14.8184 6.58162C15.8311 7.59432 16.4 8.96783 16.4 10.4ZM30.8 10.4C30.8 11.1091 30.6603 11.8113 30.3889 12.4665C30.1176 13.1216 29.7198 13.7169 29.2184 14.2184C28.7169 14.7198 28.1216 15.1176 27.4665 15.389C26.8113 15.6603 26.1091 15.8 25.4 15.8C24.6909 15.8 23.9887 15.6603 23.3335 15.389C22.6783 15.1176 22.0831 14.7198 21.5816 14.2184C21.0802 13.7169 20.6824 13.1216 20.411 12.4665C20.1397 11.8113 20 11.1091 20 10.4C20 8.96783 20.5689 7.59432 21.5816 6.58162C22.5943 5.56893 23.9678 5 25.4 5C26.8322 5 28.2057 5.56893 29.2184 6.58162C30.2311 7.59432 30.8 8.96783 30.8 10.4ZM23.474 30.2C23.5568 29.6114 23.6 29.012 23.6 28.4C23.6042 25.5719 22.6527 22.8254 20.9 20.606C22.2682 19.8161 23.8201 19.4002 25.3999 19.4002C26.9798 19.4002 28.5317 19.8161 29.8999 20.6059C31.2681 21.3958 32.4042 22.5319 33.1941 23.9001C33.9841 25.2682 34.4 26.8202 34.4 28.4V30.2H23.474ZM11 19.4C13.3869 19.4 15.6761 20.3482 17.364 22.036C19.0518 23.7239 20 26.0131 20 28.4V30.2H2V28.4C2 26.0131 2.94821 23.7239 4.63604 22.036C6.32387 20.3482 8.61305 19.4 11 19.4Z" fill="#1B44BF"/>
</svg>
