<svg width="36" height="36" viewBox="0 0 36 36" fill="none" xmlns="http://www.w3.org/2000/svg">
<path fill-rule="evenodd" clip-rule="evenodd" d="M7.34941 16.6H10.8522C11.0124 13.8172 11.5416 11.254 12.3588 9.1876C11.043 9.99385 9.91515 11.0725 9.05108 12.3511C8.18701 13.6297 7.60678 15.0785 7.34941 16.6ZM18 4C14.1809 4 10.5182 5.51714 7.81767 8.21766C5.11714 10.9182 3.60001 14.5809 3.60001 18.4C3.60001 22.2191 5.11714 25.8818 7.81767 28.5823C10.5182 31.2829 14.1809 32.8 18 32.8C21.8191 32.8 25.4818 31.2829 28.1823 28.5823C30.8829 25.8818 32.4 22.2191 32.4 18.4C32.4 14.5809 30.8829 10.9182 28.1823 8.21766C25.4818 5.51714 21.8191 4 18 4ZM18 7.6C17.8632 7.6 17.5824 7.6576 17.163 8.0716C16.7346 8.4928 16.2684 9.193 15.8364 10.1992C15.1362 11.8318 14.625 14.0548 14.4576 16.6H21.5424C21.375 14.0548 20.8638 11.8318 20.1636 10.1992C19.7316 9.1912 19.2636 8.4928 18.837 8.0716C18.4176 7.6576 18.1368 7.6 18 7.6ZM25.1478 16.6C24.9876 13.8172 24.4584 11.254 23.6412 9.1876C24.957 9.99385 26.0849 11.0725 26.9489 12.3511C27.813 13.6297 28.3932 15.0785 28.6506 16.6H25.1478ZM21.5424 20.2H14.4576C14.625 22.7452 15.1362 24.9682 15.8364 26.6008C16.2684 27.6088 16.7364 28.3072 17.163 28.7284C17.5824 29.1424 17.8632 29.2 18 29.2C18.1368 29.2 18.4176 29.1424 18.837 28.7284C19.2654 28.3072 19.7334 27.607 20.1636 26.6008C20.8638 24.9682 21.375 22.7452 21.5424 20.2ZM23.6412 27.6124C24.4584 25.5478 24.9876 22.9828 25.1478 20.2H28.6506C28.3932 21.7215 27.813 23.1703 26.9489 24.4489C26.0849 25.7275 24.957 26.8061 23.6412 27.6124ZM12.3588 27.6124C11.5416 25.546 11.0124 22.9828 10.854 20.2H7.34941C7.60678 21.7215 8.18701 23.1703 9.05108 24.4489C9.91515 25.7275 11.043 26.8061 12.3588 27.6124Z" fill="#1B44BF"/>
</svg>
