<svg width="36" height="36" viewBox="0 0 36 36" fill="none" xmlns="http://www.w3.org/2000/svg">
<g clip-path="url(#clip0_5_63)">
<path d="M35.4375 18C35.4375 27.6328 27.6328 35.4375 18 35.4375C8.36719 35.4375 0.5625 27.6328 0.5625 18C0.5625 8.36719 8.36719 0.5625 18 0.5625C27.6328 0.5625 35.4375 8.36719 35.4375 18ZM25.3406 15.968L20.25 21.2766V8.4375C20.25 7.50234 19.4977 6.75 18.5625 6.75H17.4375C16.5023 6.75 15.75 7.50234 15.75 8.4375V21.2766L10.6594 15.968C10.0055 15.2859 8.91563 15.2719 8.24766 15.9398L7.48125 16.7133C6.82031 17.3742 6.82031 18.443 7.48125 19.0969L16.8047 28.4273C17.4656 29.0883 18.5344 29.0883 19.1883 28.4273L28.5188 19.0969C29.1797 18.4359 29.1797 17.3672 28.5188 16.7133L27.7523 15.9398C27.0844 15.2719 25.9945 15.2859 25.3406 15.968Z" fill="#1B44BF"/>
</g>
<defs>
<clipPath id="clip0_5_63">
<rect width="36" height="36" fill="white"/>
</clipPath>
</defs>
</svg>
