<svg width="223" height="52" viewBox="0 0 223 52" fill="none" xmlns="http://www.w3.org/2000/svg">
<rect x="1" y="3" width="48" height="48" rx="11" stroke="white" stroke-width="2"/>
<path d="M2 10L48 9.99762" stroke="white" stroke-width="2"/>
<path d="M28 7H31.8462" stroke="white" stroke-width="2"/>
<path d="M33 7H36.8462" stroke="white" stroke-width="2"/>
<path d="M38 7H41.8462" stroke="white" stroke-width="2"/>
<path d="M36.539 30.8461V28.384C36.539 21.9773 31.5212 16.6134 25.3539 16.4273C22.1751 16.3538 19.2227 17.4889 16.9655 19.6812C15.8526 20.7533 14.9685 22.0397 14.3664 23.4628C13.7643 24.8859 13.4567 26.4162 13.4621 27.9614V30.8461C11.8712 30.8461 10.5775 32.1398 10.5775 33.7307V39.4999C10.5775 41.0908 11.8712 42.3845 13.4621 42.3845H16.3467V27.9614C16.3425 26.8025 16.573 25.6548 17.0244 24.5874C17.4758 23.52 18.1387 22.5551 18.9732 21.7509C19.8041 20.942 20.7897 20.3091 21.871 19.89C22.9522 19.4709 24.1069 19.2743 25.2659 19.3119C29.8929 19.4504 33.6544 23.5206 33.6544 28.384V42.3845H36.539C38.1299 42.3845 39.4236 41.0908 39.4236 39.4999V33.7307C39.4236 32.1398 38.1299 30.8461 36.539 30.8461Z" fill="White"/>
<path d="M17.789 30.8461H20.6736V42.3845H17.789V30.8461ZM29.3275 30.8461H32.2121V42.3845H29.3275V30.8461Z" fill="white"/>
<path d="M73.7539 18.1055L71.3281 20.25C70.4766 19.0625 69.6094 18.4688 68.7266 18.4688C68.2969 18.4688 67.9453 18.5859 67.6719 18.8203C67.3984 19.0469 67.2617 19.3047 67.2617 19.5938C67.2617 19.8828 67.3594 20.1562 67.5547 20.4141C67.8203 20.7578 68.6211 21.4961 69.957 22.6289C71.207 23.6758 71.9648 24.3359 72.2305 24.6094C72.8945 25.2812 73.3633 25.9258 73.6367 26.543C73.918 27.1523 74.0586 27.8203 74.0586 28.5469C74.0586 29.9609 73.5703 31.1289 72.5938 32.0508C71.6172 32.9727 70.3438 33.4336 68.7734 33.4336C67.5469 33.4336 66.4766 33.1328 65.5625 32.5312C64.6562 31.9297 63.8789 30.9844 63.2305 29.6953L65.9844 28.0312C66.8125 29.5547 67.7656 30.3164 68.8438 30.3164C69.4062 30.3164 69.8789 30.1523 70.2617 29.8242C70.6445 29.4961 70.8359 29.1172 70.8359 28.6875C70.8359 28.2969 70.6914 27.9062 70.4023 27.5156C70.1133 27.125 69.4766 26.5273 68.4922 25.7227C66.6172 24.1914 65.4062 23.0117 64.8594 22.1836C64.3125 21.3477 64.0391 20.5156 64.0391 19.6875C64.0391 18.4922 64.4922 17.4688 65.3984 16.6172C66.3125 15.7578 67.4375 15.3281 68.7734 15.3281C69.6328 15.3281 70.4492 15.5273 71.2227 15.9258C72.0039 16.3242 72.8477 17.0508 73.7539 18.1055ZM75.5117 15.7617H85.0391V18.9961H81.8984V33H78.5703V18.9961H75.5117V15.7617ZM87.3008 15.7617H96.7109V18.9727H90.5586V22.0898H96.7109V25.2422H90.5586V29.7773H96.7109V33H87.3008V15.7617ZM100.004 15.7617H103.484C105.391 15.7617 106.746 15.9336 107.551 16.2773C108.363 16.6133 109.016 17.1758 109.508 17.9648C110 18.7539 110.246 19.6875 110.246 20.7656C110.246 21.8984 109.973 22.8477 109.426 23.6133C108.887 24.3711 108.07 24.9453 106.977 25.3359L111.055 33H107.469L103.59 25.6992H103.285V33H100.004V15.7617ZM103.285 22.5H104.316C105.363 22.5 106.082 22.3633 106.473 22.0898C106.871 21.8164 107.07 21.3633 107.07 20.7305C107.07 20.3555 106.973 20.0312 106.777 19.7578C106.582 19.4766 106.32 19.2773 105.992 19.1602C105.664 19.0352 105.062 18.9727 104.188 18.9727H103.285V22.5ZM113.715 15.7617H123.125V18.9727H116.973V22.0898H123.125V25.2422H116.973V29.7773H123.125V33H113.715V15.7617ZM134.34 15.3281C136.777 15.3281 138.871 16.2109 140.621 17.9766C142.379 19.7422 143.258 21.8945 143.258 24.4336C143.258 26.9492 142.391 29.0781 140.656 30.8203C138.93 32.5625 136.832 33.4336 134.363 33.4336C131.777 33.4336 129.629 32.5391 127.918 30.75C126.207 28.9609 125.352 26.8359 125.352 24.375C125.352 22.7266 125.75 21.2109 126.547 19.8281C127.344 18.4453 128.438 17.3516 129.828 16.5469C131.227 15.7344 132.73 15.3281 134.34 15.3281ZM134.305 18.5391C132.711 18.5391 131.371 19.0938 130.285 20.2031C129.199 21.3125 128.656 22.7227 128.656 24.4336C128.656 26.3398 129.34 27.8477 130.707 28.957C131.77 29.8242 132.988 30.2578 134.363 30.2578C135.918 30.2578 137.242 29.6953 138.336 28.5703C139.43 27.4453 139.977 26.0586 139.977 24.4102C139.977 22.7695 139.426 21.3828 138.324 20.25C137.223 19.1094 135.883 18.5391 134.305 18.5391ZM155.387 18.1055L152.961 20.25C152.109 19.0625 151.242 18.4688 150.359 18.4688C149.93 18.4688 149.578 18.5859 149.305 18.8203C149.031 19.0469 148.895 19.3047 148.895 19.5938C148.895 19.8828 148.992 20.1562 149.188 20.4141C149.453 20.7578 150.254 21.4961 151.59 22.6289C152.84 23.6758 153.598 24.3359 153.863 24.6094C154.527 25.2812 154.996 25.9258 155.27 26.543C155.551 27.1523 155.691 27.8203 155.691 28.5469C155.691 29.9609 155.203 31.1289 154.227 32.0508C153.25 32.9727 151.977 33.4336 150.406 33.4336C149.18 33.4336 148.109 33.1328 147.195 32.5312C146.289 31.9297 145.512 30.9844 144.863 29.6953L147.617 28.0312C148.445 29.5547 149.398 30.3164 150.477 30.3164C151.039 30.3164 151.512 30.1523 151.895 29.8242C152.277 29.4961 152.469 29.1172 152.469 28.6875C152.469 28.2969 152.324 27.9062 152.035 27.5156C151.746 27.125 151.109 26.5273 150.125 25.7227C148.25 24.1914 147.039 23.0117 146.492 22.1836C145.945 21.3477 145.672 20.5156 145.672 19.6875C145.672 18.4922 146.125 17.4688 147.031 16.6172C147.945 15.7578 149.07 15.3281 150.406 15.3281C151.266 15.3281 152.082 15.5273 152.855 15.9258C153.637 16.3242 154.48 17.0508 155.387 18.1055ZM157.613 15.7617H161.141L164.352 21.9492L167.539 15.7617H171.02L165.98 25.5352V33H162.676V25.5352L157.613 15.7617ZM173.738 15.7617H176.879L184.273 27.1055V15.7617H187.555V33H184.402L177.02 21.6914V33H173.738V15.7617ZM207.336 18.7969L205.039 20.9883C203.477 19.3398 201.719 18.5156 199.766 18.5156C198.117 18.5156 196.727 19.0781 195.594 20.2031C194.469 21.3281 193.906 22.7148 193.906 24.3633C193.906 25.5117 194.156 26.5312 194.656 27.4219C195.156 28.3125 195.863 29.0117 196.777 29.5195C197.691 30.0273 198.707 30.2812 199.824 30.2812C200.777 30.2812 201.648 30.1055 202.438 29.7539C203.227 29.3945 204.094 28.7461 205.039 27.8086L207.266 30.1289C205.992 31.3711 204.789 32.2344 203.656 32.7188C202.523 33.1953 201.23 33.4336 199.777 33.4336C197.098 33.4336 194.902 32.5859 193.191 30.8906C191.488 29.1875 190.637 27.0078 190.637 24.3516C190.637 22.6328 191.023 21.1055 191.797 19.7695C192.578 18.4336 193.691 17.3594 195.137 16.5469C196.59 15.7344 198.152 15.3281 199.824 15.3281C201.246 15.3281 202.613 15.6289 203.926 16.2305C205.246 16.832 206.383 17.6875 207.336 18.7969Z" fill="White"/>
<circle cx="134" cy="24" r="10" fill="white"/>
<circle cx="134" cy="24" r="5" fill="black"/>
</svg>
